<?xml version="1.0" encoding="UTF-8"?>
<svg id="Layer_2" data-name="Layer 2" xmlns="http://www.w3.org/2000/svg" xmlns:xlink="http://www.w3.org/1999/xlink" viewBox="0 0 623.47 656.5">
  <defs>
    <style>
      .cls-1 {
        fill: url(#linear-gradient-2);
      }

      .cls-2 {
        fill: #fff;
      }

      .cls-3 {
        fill: #685cd0;
      }

      .cls-4 {
        fill: #2f80f0;
      }

      .cls-5 {
        fill: #9d2f8f;
      }

      .cls-6 {
        fill: url(#linear-gradient-15);
      }

      .cls-7 {
        fill: url(#linear-gradient-18);
      }

      .cls-8 {
        fill: url(#linear-gradient-14);
      }

      .cls-9 {
        mask: url(#mask-2);
      }

      .cls-10 {
        fill: url(#linear-gradient-6);
      }

      .cls-11 {
        clip-path: url(#clippath-2);
      }

      .cls-12 {
        mask: url(#mask-3);
      }

      .cls-13 {
        fill: url(#linear-gradient-11);
      }

      .cls-14 {
        fill: url(#linear-gradient-20);
        fill-opacity: .8;
      }

      .cls-15 {
        clip-path: url(#clippath-1);
      }

      .cls-16 {
        clip-path: url(#clippath-4);
      }

      .cls-17 {
        fill: url(#linear-gradient-10);
      }

      .cls-18 {
        fill: #0fa0d0;
      }

      .cls-19 {
        fill: url(#linear-gradient-16);
      }

      .cls-20 {
        fill: url(#linear-gradient-5);
      }

      .cls-21 {
        clip-path: url(#clippath);
      }

      .cls-22 {
        fill: none;
      }

      .cls-23 {
        fill: url(#linear-gradient-17);
        fill-opacity: .6;
      }

      .cls-24 {
        clip-path: url(#clippath-3);
      }

      .cls-25 {
        fill: url(#linear-gradient-7);
      }

      .cls-26 {
        fill: url(#linear-gradient-9);
      }

      .cls-27 {
        mask: url(#mask-1);
      }

      .cls-28 {
        mask: url(#mask);
      }

      .cls-29 {
        fill: url(#linear-gradient-3);
      }

      .cls-30 {
        clip-path: url(#clippath-5);
      }

      .cls-31 {
        fill: url(#linear-gradient);
      }

      .cls-32 {
        fill: url(#linear-gradient-19);
      }

      .cls-33 {
        fill: url(#linear-gradient-4);
      }

      .cls-34 {
        fill: #ebba24;
      }

      .cls-35 {
        isolation: isolate;
        opacity: .5;
      }

      .cls-36 {
        fill: url(#linear-gradient-8);
      }

      .cls-37 {
        fill: url(#linear-gradient-12);
      }

      .cls-38 {
        fill: url(#linear-gradient-13);
      }
    </style>
    <mask id="mask" x="279.1" y="135.95" width="66.83" height="89.11" maskUnits="userSpaceOnUse">
      <g id="mask0">
        <path class="cls-2" d="m316.23,139.66c0-2.05,1.66-3.71,3.71-3.71h22.28c2.05,0,3.71,1.66,3.71,3.71v81.68c0,2.05-1.66,3.71-3.71,3.71h-59.41c-2.05,0-3.71-1.66-3.71-3.71v-37.13c0-2.05,1.66-3.71,3.71-3.71h14.85v-18.56c0-2.05,1.66-3.71,3.71-3.71h14.85v-18.56Z"/>
      </g>
    </mask>
    <linearGradient id="linear-gradient" x1="310.29" y1="522.09" x2="349.46" y2="439.06" gradientTransform="translate(0 658.5) scale(1 -1)" gradientUnits="userSpaceOnUse">
      <stop offset="0" stop-color="#e6ad10"/>
      <stop offset="1" stop-color="#c87e0e"/>
    </linearGradient>
    <linearGradient id="linear-gradient-2" x1="295.22" y1="499.01" x2="328.16" y2="435.13" gradientTransform="translate(0 658.5) scale(1 -1)" gradientUnits="userSpaceOnUse">
      <stop offset="0" stop-color="#f6d751"/>
      <stop offset="1" stop-color="#e6ad10"/>
    </linearGradient>
    <linearGradient id="linear-gradient-3" x1="283.2" y1="479.73" x2="301.4" y2="436.59" gradientTransform="translate(0 658.5) scale(1 -1)" gradientUnits="userSpaceOnUse">
      <stop offset="0" stop-color="#f9e589"/>
      <stop offset="1" stop-color="#f6d751"/>
    </linearGradient>
    <clipPath id="clippath">
      <rect class="cls-22" x="135.6" y="230.47" width="89.1" height="89.1"/>
    </clipPath>
    <clipPath id="clippath-1">
      <rect class="cls-22" x="135.6" y="230.47" width="89.1" height="89.1"/>
    </clipPath>
    <mask id="mask-1" x="130.96" y="239.75" width="94.67" height="72.39" maskUnits="userSpaceOnUse">
      <g id="mask0-2" data-name="mask0">
        <path class="cls-2" d="m192.42,239.75c1.06,0,2.06.45,2.77,1.24l28.23,31.56c1.26,1.41,1.26,3.54,0,4.95l-28.23,31.56c-.7.79-1.71,1.24-2.77,1.24h-53.15c-3.21,0-4.91-3.8-2.77-6.19l26.02-29.08-26.02-29.08c-2.14-2.39-.44-6.19,2.77-6.19h53.15Z"/>
      </g>
    </mask>
    <linearGradient id="linear-gradient-4" x1="175.51" y1="376.98" x2="162.52" y2="418.75" gradientTransform="translate(0 658.5) scale(1 -1)" gradientUnits="userSpaceOnUse">
      <stop offset="0" stop-color="#0d36a5"/>
      <stop offset="1" stop-color="#1152d4"/>
    </linearGradient>
    <linearGradient id="linear-gradient-5" x1="178.3" y1="418.75" x2="178.3" y2="348.21" gradientTransform="translate(0 658.5) scale(1 -1)" gradientUnits="userSpaceOnUse">
      <stop offset="0" stop-color="#84caff"/>
      <stop offset="1" stop-color="#61b1fb"/>
    </linearGradient>
    <linearGradient id="linear-gradient-6" x1="170.41" y1="418.75" x2="170.41" y2="348.21" gradientTransform="translate(0 658.5) scale(1 -1)" gradientUnits="userSpaceOnUse">
      <stop offset="0" stop-color="#3b90f5"/>
      <stop offset="1" stop-color="#2a78ee"/>
    </linearGradient>
    <clipPath id="clippath-2">
      <rect class="cls-22" x="398.77" y="232.63" width="89.1" height="89.1"/>
    </clipPath>
    <clipPath id="clippath-3">
      <rect class="cls-22" x="398.77" y="232.63" width="89.1" height="89.1"/>
    </clipPath>
    <clipPath id="clippath-4">
      <rect class="cls-22" x="398.77" y="232.63" width="89.1" height="89.1"/>
    </clipPath>
    <mask id="mask-2" x="396.91" y="232.63" width="92.81" height="90.96" maskUnits="userSpaceOnUse">
      <g id="mask0-3" data-name="mask0">
        <path class="cls-2" d="m400.12,273.51c-1.84,2.1-1.84,5.23,0,7.33l32.98,37.69c1.48,1.69,4.11,1.69,5.59,0l3.55-4.06,3.91,4.27c1.47,1.61,4,1.61,5.47,0l34.65-37.8c1.95-2.13,1.95-5.4,0-7.53l-34.65-37.8c-1.47-1.61-4-1.61-5.47,0l-3.91,4.27-3.55-4.06c-1.48-1.69-4.11-1.69-5.59,0l-32.98,37.69Z"/>
      </g>
    </mask>
    <linearGradient id="linear-gradient-7" x1="455.61" y1="333.07" x2="403.64" y2="460.23" gradientTransform="translate(0 658.5) scale(1 -1)" gradientUnits="userSpaceOnUse">
      <stop offset="0" stop-color="#742774"/>
      <stop offset="1" stop-color="#bb35a4"/>
    </linearGradient>
    <linearGradient id="linear-gradient-8" x1="432.05" y1="427.59" x2="474.74" y2="338.49" gradientTransform="translate(0 658.5) scale(1 -1)" gradientUnits="userSpaceOnUse">
      <stop offset="0" stop-color="#e48cc7"/>
      <stop offset="1" stop-color="#d467b9"/>
    </linearGradient>
    <linearGradient id="linear-gradient-9" x1="463.63" y1="401.34" x2="476.63" y2="361.43" gradientTransform="translate(0 658.5) scale(1 -1)" gradientUnits="userSpaceOnUse">
      <stop offset="0" stop-color="#e9a1cb"/>
      <stop offset="1" stop-color="#e48cc7"/>
    </linearGradient>
    <clipPath id="clippath-5">
      <rect class="cls-22" x="184.58" y="385.55" width="89.14" height="89.14"/>
    </clipPath>
    <mask id="mask-3" x="181.79" y="384.66" width="94.71" height="90.92" maskUnits="userSpaceOnUse">
      <g id="mask0-4" data-name="mask0">
        <path class="cls-2" d="m231.93,386.75c-1.65-1.24-3.92-1.24-5.57,0l-39.62,29.71c-2.48,1.86-2.48,5.57,0,7.43l19.67,14.75-8.31,6.23c-2.48,1.86-2.48,5.57,0,7.43l28.25,21.19c1.65,1.24,3.92,1.24,5.57,0l39.62-29.71c2.48-1.86,2.48-5.57,0-7.43l-19.67-14.75,8.31-6.23c2.48-1.86,2.48-5.57,0-7.43l-28.25-21.19Z"/>
      </g>
    </mask>
    <linearGradient id="linear-gradient-10" x1="217.63" y1="275.73" x2="241.48" y2="190.38" gradientTransform="translate(0 658.5) scale(1 -1)" gradientUnits="userSpaceOnUse">
      <stop offset="0" stop-color="#a391e8"/>
      <stop offset="1" stop-color="#685cd0"/>
    </linearGradient>
    <linearGradient id="linear-gradient-11" x1="252.78" y1="186.49" x2="236.53" y2="233.38" gradientTransform="translate(0 658.5) scale(1 -1)" gradientUnits="userSpaceOnUse">
      <stop offset="0" stop-color="#38389f"/>
      <stop offset="1" stop-color="#4b44c0"/>
    </linearGradient>
    <linearGradient id="linear-gradient-12" x1="209.98" y1="282.05" x2="233.07" y2="214.48" gradientTransform="translate(0 658.5) scale(1 -1)" gradientUnits="userSpaceOnUse">
      <stop offset="0" stop-color="#dbcef8"/>
      <stop offset="1" stop-color="#c0aff1"/>
    </linearGradient>
    <linearGradient id="linear-gradient-13" x1="206.02" y1="276.26" x2="230.88" y2="187.48" gradientTransform="translate(0 658.5) scale(1 -1)" gradientUnits="userSpaceOnUse">
      <stop offset="0" stop-color="#c0aff1"/>
      <stop offset="1" stop-color="#8675dd"/>
    </linearGradient>
    <linearGradient id="linear-gradient-14" x1="360.08" y1="205.85" x2="459.5" y2="252.55" gradientTransform="translate(0 658.5) scale(1 -1)" gradientUnits="userSpaceOnUse">
      <stop offset="0" stop-color="#003580"/>
      <stop offset=".3" stop-color="#0057ad"/>
      <stop offset="1" stop-color="#16bfdf"/>
    </linearGradient>
    <linearGradient id="linear-gradient-15" x1="348.32" y1="199.26" x2="377.3" y2="199.26" gradientTransform="translate(0 658.5) scale(1 -1)" gradientUnits="userSpaceOnUse">
      <stop offset="0" stop-color="#0e637a"/>
      <stop offset="1" stop-color="#0074bd"/>
    </linearGradient>
    <linearGradient id="linear-gradient-16" x1="399.39" y1="205.02" x2="349.64" y2="230.02" gradientTransform="translate(0 658.5) scale(1 -1)" gradientUnits="userSpaceOnUse">
      <stop offset="0" stop-color="#0986b3"/>
      <stop offset=".72" stop-color="#16bfdf"/>
      <stop offset="1" stop-color="#3dd9eb"/>
    </linearGradient>
    <linearGradient id="linear-gradient-17" x1="348.32" y1="219.76" x2="354.92" y2="219.76" gradientTransform="translate(0 658.5) scale(1 -1)" gradientUnits="userSpaceOnUse">
      <stop offset="0" stop-color="#0ba0c5"/>
      <stop offset=".5" stop-color="#0ba0c5" stop-opacity=".26"/>
      <stop offset="1" stop-color="#0ba0c5" stop-opacity="0"/>
    </linearGradient>
    <linearGradient id="linear-gradient-18" x1="362.81" y1="229.93" x2="391.79" y2="229.93" gradientTransform="translate(0 658.5) scale(1 -1)" gradientUnits="userSpaceOnUse">
      <stop offset="0" stop-color="#117b97"/>
      <stop offset="1" stop-color="#1392b4"/>
    </linearGradient>
    <linearGradient id="linear-gradient-19" x1="368.85" y1="230.37" x2="407.76" y2="270.02" gradientTransform="translate(0 658.5) scale(1 -1)" gradientUnits="userSpaceOnUse">
      <stop offset="0" stop-color="#3dcbff"/>
      <stop offset=".52" stop-color="#6eeded"/>
      <stop offset="1" stop-color="#9bf3af"/>
    </linearGradient>
    <linearGradient id="linear-gradient-20" x1="370.05" y1="250.67" x2="377.04" y2="250.67" gradientTransform="translate(0 658.5) scale(1 -1)" gradientUnits="userSpaceOnUse">
      <stop offset="0" stop-color="#3dcbff"/>
      <stop offset=".43" stop-color="#3dcbff" stop-opacity=".34"/>
      <stop offset="1" stop-color="#3dcbff" stop-opacity="0"/>
    </linearGradient>
  </defs>
  <g id="Layer_1-2" data-name="Layer 1">
    <g>
      <g>
        <path class="cls-2" d="m505.27,557.35l-3.15-3.95c1.31-1.05,2.62-2.1,3.91-3.17l3.21,3.92c-1.31,1.08-2.64,2.15-3.97,3.21Zm-393.18-1.88c-1.33-1.07-2.65-2.16-3.95-3.25l3.24-3.89c1.29,1.07,2.58,2.14,3.89,3.19l-3.17,3.94Zm416.21-18.35l-3.52-3.64c1.2-1.16,2.4-2.34,3.58-3.52l3.58,3.58c-1.21,1.21-2.42,2.4-3.64,3.58Zm-439.04-2.13c-1.21-1.21-2.4-2.42-3.58-3.64l3.63-3.53c1.17,1.2,2.35,2.4,3.53,3.59l-3.58,3.58Zm460-20.24l-3.86-3.28c1.09-1.28,2.16-2.57,3.22-3.86l3.92,3.21c-1.08,1.31-2.18,2.63-3.28,3.93Zm-480.54-2.55c-1.08-1.33-2.15-2.67-3.19-4.02l3.99-3.1c1.03,1.32,2.08,2.64,3.13,3.94l-3.94,3.18Zm499.22-21.77l-4.16-2.89c.96-1.38,1.9-2.76,2.84-4.16l4.2,2.82c-.95,1.42-1.91,2.83-2.88,4.23Zm-517.27-3.06c-.93-1.43-1.85-2.87-2.76-4.32l4.29-2.69c.89,1.42,1.79,2.84,2.71,4.24l-4.24,2.77Zm533.49-22.97l-4.42-2.46c.82-1.47,1.62-2.95,2.42-4.43l4.46,2.39c-.81,1.5-1.62,3.01-2.46,4.5Zm-548.89-3.57c-.79-1.52-1.55-3.05-2.3-4.58l4.54-2.23c.74,1.5,1.5,3,2.26,4.5l-4.5,2.31Zm562.48-23.94l-4.64-2.03c.67-1.54,1.32-3.08,1.97-4.64l4.68,1.94c-.65,1.58-1.32,3.16-2.01,4.73Zm-575.13-4c-.63-1.59-1.24-3.18-1.84-4.79l4.75-1.77c.58,1.57,1.19,3.13,1.8,4.69l-4.71,1.87Zm585.94-24.73l-4.81-1.55c.51-1.6,1.01-3.21,1.5-4.82l4.84,1.47c-.5,1.64-1.01,3.27-1.53,4.9Zm-595.82-4.31c-.47-1.64-.93-3.28-1.37-4.92l4.88-1.31c.44,1.62.89,3.23,1.35,4.84l-4.86,1.39Zm603.74-25.34l-4.95-1.07c.36-1.64.69-3.28,1.02-4.92l4.96.98c-.33,1.68-.67,3.35-1.03,5.01ZM5.7,374.01c-.32-1.67-.61-3.35-.9-5.02l4.99-.86c.28,1.65.58,3.3.88,4.95l-4.97.93Zm615.76-25.76l-5.03-.56c.19-1.67.37-3.34.52-5.01l5.04.48c-.17,1.7-.35,3.39-.53,5.09ZM1.44,343.65c-.16-1.7-.3-3.4-.44-5.1l5.05-.39c.12,1.67.27,3.34.43,5.01l-5.04.47Zm621.99-25.99l-5.06-.08c.02-1.67.04-3.35.04-5.03v-1.05h5.06v1.05c0,1.71-.01,3.41-.04,5.11ZM0,313.03v-.44c0-1.56,0-3.12.03-4.68l5.06.08c-.02,1.53-.03,3.06-.03,4.6l-5.06.44Zm617.31-26.64c-.15-1.68-.3-3.35-.46-5.02l5.03-.5c.17,1.69.33,3.38.47,5.08l-5.04.44Zm-610.9-3.53l-5.04-.45c.15-1.7.32-3.4.5-5.09l5.03.54c-.18,1.67-.34,3.33-.49,5Zm606.9-26.37c-.3-1.65-.62-3.3-.95-4.94l4.96-.99c.34,1.67.66,3.34.96,5.01l-4.98.92Zm-602.8-3.53l-4.98-.92c.31-1.67.63-3.35.96-5.02l4.96.99c-.33,1.65-.65,3.3-.95,4.95Zm595.87-25.82c-.46-1.61-.94-3.21-1.43-4.81l4.84-1.48c.5,1.63.98,3.27,1.45,4.9l-4.86,1.39Zm-589-3.57l-4.87-1.37c.46-1.64.94-3.28,1.44-4.91l4.84,1.46c-.48,1.61-.95,3.21-1.41,4.82Zm579.23-24.95c-.62-1.55-1.26-3.1-1.9-4.64l4.68-1.95c.65,1.56,1.29,3.13,1.92,4.71l-4.7,1.88Zm-569.61-3.64l-4.72-1.84c.62-1.59,1.25-3.17,1.9-4.75l4.68,1.93c-.64,1.55-1.26,3.1-1.87,4.66Zm557.06-23.76c-.77-1.49-1.55-2.96-2.34-4.43l4.46-2.4c.81,1.49,1.6,3,2.38,4.5l-4.5,2.33Zm-544.7-3.75l-4.51-2.3c.77-1.51,1.56-3.03,2.36-4.52l4.47,2.37c-.79,1.48-1.56,2.96-2.32,4.45Zm529.54-22.3c-.91-1.4-1.83-2.8-2.77-4.19l4.19-2.83c.95,1.41,1.89,2.83,2.82,4.26l-4.24,2.76Zm-514.51-3.83l-4.25-2.75c.92-1.42,1.85-2.84,2.8-4.26l4.21,2.82c-.93,1.39-1.85,2.79-2.76,4.19Zm496.86-20.62c-1.05-1.31-2.1-2.61-3.17-3.9l3.9-3.23c1.09,1.31,2.16,2.63,3.23,3.96l-3.95,3.16Zm-479.24-3.81l-3.94-3.17c1.07-1.32,2.15-2.64,3.24-3.96l3.89,3.24c-1.07,1.29-2.14,2.59-3.18,3.89Zm459.29-18.81c-1.18-1.21-2.35-2.4-3.54-3.58l3.57-3.59c1.21,1.2,2.4,2.41,3.59,3.63l-3.62,3.54Zm-439.2-3.66l-3.59-3.57c1.2-1.21,2.41-2.4,3.63-3.59l3.54,3.62c-1.21,1.18-2.4,2.35-3.58,3.54Zm417.14-16.91c-1.29-1.08-2.58-2.16-3.88-3.22l3.2-3.92c1.32,1.08,2.63,2.17,3.93,3.26l-3.25,3.88Zm-394.78-3.3l-3.19-3.94c1.32-1.07,2.65-2.13,4-3.19l3.12,3.98c-1.32,1.04-2.63,2.08-3.93,3.14Zm370.8-15.02c-1.38-.95-2.77-1.89-4.17-2.83l2.81-4.21c1.42.94,2.83,1.9,4.23,2.87l-2.87,4.17Zm-346.44-2.72l-2.76-4.24c1.42-.93,2.86-1.84,4.32-2.75l2.68,4.29c-1.42.89-2.83,1.79-4.24,2.7Zm320.79-13.17c-1.47-.82-2.95-1.61-4.43-2.4l2.37-4.47c1.51.8,3.01,1.62,4.51,2.44l-2.45,4.43Zm-294.71-1.94l-2.31-4.5c1.51-.78,3.04-1.55,4.57-2.3l2.22,4.55c-1.51.74-3,1.49-4.48,2.25Zm267.6-11.36c-1.54-.67-3.09-1.32-4.65-1.96l1.94-4.68c1.58.65,3.15,1.31,4.72,1.99l-2.01,4.65Zm-240.13-1.07l-1.86-4.71c1.58-.62,3.17-1.24,4.77-1.84l1.79,4.74c-1.58.59-3.14,1.2-4.7,1.81Zm211.85-9.5c-1.61-.51-3.22-1-4.83-1.49l1.46-4.84c1.64.49,3.27.99,4.9,1.51l-1.53,4.82Zm-183.3-.23l-1.41-4.86c1.63-.47,3.27-.93,4.91-1.39l1.34,4.88c-1.63.44-3.24.9-4.84,1.37Zm29.32-7.13l-.98-4.96c1.66-.33,3.33-.65,5-.96l.93,4.97c-1.66.31-3.31.63-4.95.95Zm124.79-.34c-1.64-.35-3.28-.68-4.93-1.01l.98-4.96c1.67.33,3.34.67,5,1.02l-1.05,4.95Zm-94.95-4.32l-.58-5.03c1.68-.19,3.38-.38,5.08-.55l.51,5.03c-1.68.17-3.35.36-5.01.55Zm65.18-.48c-1.67-.19-3.33-.36-5-.51l.47-5.04c1.7.16,3.4.34,5.09.52l-.56,5.03Zm-35.05-1.86l-.19-5.06.77-.03c1.58,0,3,0,4.43.02l-.07,5.06c-1.41-.02-2.81-.03-4.22-.03l-.72.03Z"/>
        <g>
          <g>
            <path class="cls-2" d="m103.73,592.39c0,6.43-4.98,10.68-12.42,10.68h-6.89v10.04h-3.6v-31.03h10.95c7.16,0,11.96,4.11,11.96,10.31Zm-3.56,0c0-4.2-3.42-7.02-8.54-7.02h-7.21v14.37h7.21c5.11,0,8.54-2.92,8.54-7.35Z"/>
            <path class="cls-2" d="m143.56,597.59c0,8.95-7.21,16.06-16.15,16.06s-16.15-7.12-16.15-16.06,7.21-16.06,16.15-16.06,16.15,7.12,16.15,16.06Zm-3.65,0c0-7.02-5.48-12.68-12.5-12.68s-12.5,5.66-12.5,12.68,5.48,12.68,12.5,12.68,12.5-5.66,12.5-12.68Z"/>
            <path class="cls-2" d="m194.07,582.08l-10.58,31.26h-3.51l-8.44-24.82-8.44,24.82h-3.51l-10.58-31.26h3.78l8.53,25.74,8.67-25.74h3.11l8.62,25.69,8.58-25.69h3.78Z"/>
            <path class="cls-2" d="m206.03,585.41v10.63h16.29v3.34h-16.29v10.4h18.12v3.33h-21.72v-31.03h21.72v3.34h-18.12Z"/>
            <path class="cls-2" d="m245.64,602.02h-7.9v11.09h-3.6v-31.03h11.73c6.98,0,11.87,3.83,11.87,9.95,0,4.93-3.15,8.4-7.99,9.53l9.4,11.55h-4.47l-9.03-11.09Zm-7.9-3.33h8.03c4.84,0,8.4-2.51,8.4-6.66s-3.56-6.61-8.4-6.61h-8.03v13.28Z"/>
            <path class="cls-2" d="m306.15,592.39c0,6.43-4.98,10.68-12.42,10.68h-6.89v10.04h-3.6v-31.03h10.95c7.16,0,11.96,4.11,11.96,10.31Zm-3.56,0c0-4.2-3.42-7.02-8.54-7.02h-7.21v14.37h7.21c5.11,0,8.54-2.92,8.54-7.35Z"/>
            <path class="cls-2" d="m335.49,609.78v3.33h-20.72v-31.03h3.6v27.7h17.11Z"/>
            <path class="cls-2" d="m364.92,604.44h-16.01l-3.83,8.67h-3.88l14.01-31.03h3.42l14.01,31.03h-3.88l-3.83-8.67Zm-1.46-3.24l-6.57-14.88-6.57,14.88h13.14Z"/>
            <path class="cls-2" d="m400.6,585.41h-11.46v27.69h-3.6v-27.69h-11.41v-3.34h26.47v3.34Z"/>
            <path class="cls-2" d="m412.24,585.41v11.41h15.79v3.33h-15.79v12.96h-3.6v-31.03h21.31v3.34h-17.71Z"/>
            <path class="cls-2" d="m468.87,597.59c0,8.95-7.21,16.06-16.15,16.06s-16.15-7.12-16.15-16.06,7.21-16.06,16.15-16.06,16.15,7.12,16.15,16.06Zm-3.65,0c0-7.02-5.48-12.68-12.5-12.68s-12.5,5.66-12.5,12.68,5.48,12.68,12.5,12.68,12.5-5.66,12.5-12.68Z"/>
            <path class="cls-2" d="m490.5,602.02h-7.9v11.09h-3.6v-31.03h11.73c6.98,0,11.87,3.83,11.87,9.95,0,4.93-3.15,8.4-7.99,9.53l9.4,11.55h-4.47l-9.03-11.09Zm-7.9-3.33h8.03c4.84,0,8.4-2.51,8.4-6.66s-3.56-6.61-8.4-6.61h-8.03v13.28Z"/>
            <path class="cls-2" d="m542.65,613.11h-3.6v-23.13l-10.36,17.2h-2.37l-10.45-17.3.09,23.23h-3.6v-31.03h2.74l12.41,20.72,12.41-20.72h2.74v31.03Z"/>
          </g>
          <g>
            <path class="cls-2" d="m193.99,647.28c0,5.16-4.15,8.63-11.13,8.63h-15.61v-31.03h14.7c6.75,0,10.68,3.19,10.68,8.26,0,2.88-1.6,5.84-4.29,6.8,3.79.82,5.66,4.01,5.66,7.34Zm-19.03-16.1v6.48h5.8c2.92,0,4.52-1.46,4.52-3.47s-1.55-3.01-4.52-3.01h-5.8Zm11.5,15.1c0-1.92-1.6-3.01-4.47-3.01h-7.03v6.25h6.89c3.19,0,4.61-1.41,4.61-3.24Z"/>
            <path class="cls-2" d="m233.41,640.39c0,9.04-7.07,16.11-16.42,16.11s-16.43-7.07-16.43-16.11,7.07-16.1,16.43-16.1,16.42,7.07,16.42,16.1Zm-7.8,0c0-4.88-3.6-8.9-8.62-8.9s-8.63,4.01-8.63,8.9,3.6,8.9,8.63,8.9,8.62-4.02,8.62-8.9Z"/>
            <path class="cls-2" d="m274.16,640.39c0,9.04-7.07,16.11-16.42,16.11s-16.43-7.07-16.43-16.11,7.07-16.1,16.43-16.1,16.42,7.07,16.42,16.1Zm-7.8,0c0-4.88-3.6-8.9-8.62-8.9s-8.63,4.01-8.63,8.9,3.6,8.9,8.63,8.9,8.62-4.02,8.62-8.9Z"/>
            <path class="cls-2" d="m306.28,631.77h-9.9v24.14h-7.66v-24.14h-9.9v-6.89h27.47v6.89Z"/>
            <path class="cls-2" d="m334.99,643.04h7.94c-1,8.03-7.12,13.46-15.56,13.46-9.35,0-16.43-6.75-16.43-16.11s7.07-16.1,16.43-16.1c8.44,0,14.56,5.43,15.56,13.46h-7.94c-.82-3.88-3.56-6.25-7.66-6.25-5.07,0-8.58,3.74-8.58,8.9s3.51,8.9,8.58,8.9c4.1,0,6.84-2.38,7.66-6.26Z"/>
            <path class="cls-2" d="m370.26,650.57h-13.14l-2.05,5.34h-8.21l13.18-31.03h7.39l13.14,31.03h-8.22l-2.1-5.34Zm-2.51-6.43l-4.06-10.45-4.06,10.45h8.12Z"/>
            <path class="cls-2" d="m421.23,655.91h-7.71v-15.56l-6.89,10.63v.04h-4.29v-.04l-6.93-10.72.04,15.65h-7.71v-31.03h5.75l11,16.56,11-16.56h5.75v31.03Z"/>
            <path class="cls-2" d="m456.23,636.24c0,7.26-5.29,11.78-13.73,11.78h-4.2v7.89h-7.71v-31.03h12.5c8.12,0,13.14,4.38,13.14,11.36Zm-7.66,0c0-2.78-2.24-4.61-5.61-4.61h-4.66v9.63h4.66c3.37,0,5.61-1.96,5.61-5.02Z"/>
          </g>
        </g>
      </g>
      <g>
        <g>
          <g>
            <path class="cls-2" d="m400.66,180.5c0,48.62-39.52,88.14-88.14,88.14s-88.14-39.52-88.14-88.14,39.52-88.14,88.14-88.14,88.14,39.52,88.14,88.14Z"/>
            <path class="cls-34" d="m312.52,87.34c-51.38,0-93.16,41.78-93.16,93.16s41.78,93.16,93.16,93.16,93.17-41.78,93.17-93.16-41.78-93.16-93.17-93.16Zm0,181.3c-48.62,0-88.14-39.52-88.14-88.14s39.52-88.14,88.14-88.14,88.14,39.52,88.14,88.14-39.52,88.14-88.14,88.14Z"/>
          </g>
          <g class="cls-28">
            <g>
              <path class="cls-31" d="m345.94,135.95v89.11h-29.7v-89.11h29.7Z"/>
              <path class="cls-1" d="m327.37,161.94v63.12h-29.7v-66.83h25.99c2.05,0,3.71,1.66,3.71,3.71Z"/>
              <path class="cls-29" d="m279.1,180.5v44.56h29.7v-40.84c0-2.05-1.66-3.71-3.71-3.71h-25.99Z"/>
            </g>
          </g>
        </g>
        <g>
          <g>
            <path class="cls-2" d="m207.39,191.21c46.23,15.02,71.6,64.81,56.58,111.05-15.02,46.23-64.81,71.6-111.05,56.58-46.23-15.02-71.6-64.81-56.58-111.05,15.02-46.23,64.81-71.6,111.05-56.58Z"/>
            <path class="cls-4" d="m91.56,246.24c-15.88,48.86,10.95,101.5,59.81,117.38,48.86,15.88,101.5-10.95,117.38-59.81,15.88-48.86-10.94-101.51-59.81-117.38-48.86-15.88-101.5,10.95-117.38,59.81Zm172.41,56.02c-15.02,46.23-64.81,71.6-111.05,56.58-46.23-15.02-71.6-64.81-56.58-111.05,15.02-46.23,64.81-71.6,111.05-56.58,46.23,15.02,71.6,64.81,56.58,111.05Z"/>
          </g>
          <g class="cls-21">
            <g class="cls-15">
              <g class="cls-27">
                <g>
                  <path class="cls-33" d="m194.08,239.75l-31.56,35.27-31.56-35.27h63.11Z"/>
                  <path d="m194.08,240.12l-63.11,70.54h63.11l31.56-35.27-31.56-35.27Z"/>
                  <path d="m194.08,241.61l-63.11,70.54h63.11l31.56-35.27-31.56-35.27Z"/>
                  <path class="cls-20" d="m130.96,310.29l63.11-70.54,31.56,35.27-31.56,35.27h-63.11Z"/>
                  <path class="cls-10" d="m130.96,310.29l63.11-70.54,15.78,17.63-47.33,52.9h-31.56Z"/>
                </g>
              </g>
            </g>
          </g>
        </g>
        <g>
          <g>
            <path class="cls-2" d="m470.55,360.99c-46.23,15.02-96.02-10.35-111.05-56.58-15.02-46.23,10.35-96.02,56.58-111.05,46.23-15.02,96.02,10.35,111.05,56.58,15.02,46.23-10.35,96.03-56.58,111.05Z"/>
            <path class="cls-5" d="m531.91,248.39c-15.88-48.86-68.52-75.68-117.38-59.81-48.86,15.88-75.69,68.52-59.81,117.38,15.88,48.86,68.52,75.69,117.38,59.81,48.86-15.88,75.68-68.52,59.81-117.38Zm-172.41,56.02c-15.02-46.23,10.35-96.02,56.58-111.05,46.23-15.02,96.02,10.35,111.05,56.58,15.02,46.23-10.35,96.03-56.58,111.05-46.23,15.02-96.02-10.35-111.05-56.58Z"/>
          </g>
          <g class="cls-11">
            <g class="cls-24">
              <g class="cls-16">
                <g class="cls-9">
                  <g>
                    <path class="cls-25" d="m435.89,321.73l-38.98-44.55,38.98-44.55,38.98,44.55-38.98,44.55Z"/>
                    <path d="m448.88,234.49l40.84,44.55-40.84,44.55-18.12-19.77c-1.3-1.42-1.3-3.6,0-5.02l15.82-17.26c1.3-1.42,1.3-3.6,0-5.02l-15.82-17.26c-1.3-1.42-1.3-3.6,0-5.02l18.12-19.77Z"/>
                    <path d="m448.88,232.98l40.84,44.55-40.84,44.55-18.12-19.77c-1.3-1.42-1.3-3.6,0-5.02l15.82-17.26c1.3-1.42,1.3-3.6,0-5.02l-15.82-17.26c-1.3-1.42-1.3-3.6,0-5.02l18.12-19.77Z"/>
                    <path class="cls-36" d="m448.88,232.63l40.84,44.55-40.84,44.55-18.12-19.77c-1.3-1.42-1.3-3.6,0-5.02l15.82-17.26c1.3-1.42,1.3-3.6,0-5.02l-15.82-17.26c-1.3-1.42-1.3-3.6,0-5.02l18.12-19.77Z"/>
                    <path class="cls-26" d="m466.57,257.89c1.47-1.61,4-1.61,5.47,0l17.68,19.29-17.68,19.29c-1.47,1.61-4,1.61-5.47,0l-14.23-15.53c-1.95-2.13-1.95-5.4,0-7.53l14.23-15.53Z"/>
                  </g>
                </g>
              </g>
            </g>
          </g>
        </g>
        <g>
          <path class="cls-2" d="m320.46,483.27c-28.59-39.34-19.84-94.56,19.51-123.15,39.34-28.59,94.56-19.84,123.15,19.51,28.59,39.34,19.84,94.56-19.5,123.15-39.34,28.59-94.56,19.84-123.15-19.5Z"/>
          <path class="cls-18" d="m446.57,506.84c41.58-30.21,50.83-88.59,20.62-130.17-30.21-41.58-88.59-50.83-130.17-20.62-41.58,30.21-50.83,88.59-20.62,130.17,30.21,41.58,88.59,50.83,130.17,20.62Zm-106.6-146.72c39.34-28.59,94.56-19.84,123.15,19.51,28.59,39.34,19.84,94.56-19.5,123.15-39.34,28.59-94.56,19.84-123.15-19.5-28.59-39.34-19.84-94.56,19.51-123.15Z"/>
        </g>
        <g>
          <g>
            <path class="cls-2" d="m157.82,378.3c28.59-39.34,83.8-48.09,123.15-19.5,39.34,28.59,48.09,83.8,19.5,123.15-28.59,39.34-83.8,48.09-123.14,19.5-39.34-28.59-48.09-83.8-19.51-123.15Z"/>
            <path class="cls-3" d="m174.37,505.51c41.58,30.21,99.96,20.96,130.17-20.62,30.21-41.58,20.97-99.96-20.62-130.17-41.58-30.21-99.96-20.97-130.17,20.62-30.21,41.58-20.97,99.96,20.62,130.17Zm106.6-146.72c39.34,28.59,48.09,83.8,19.5,123.15-28.59,39.34-83.8,48.09-123.14,19.5-39.34-28.59-48.09-83.8-19.51-123.15,28.59-39.34,83.8-48.09,123.15-19.5Z"/>
          </g>
          <g class="cls-30">
            <g class="cls-12">
              <g>
                <path class="cls-17" d="m193.16,448.58l47.35-35.51,35.99,26.99-47.35,35.51-35.99-26.99Z"/>
                <path class="cls-13" d="m206.42,438.64l34.09-25.57,35.99,26.99-31.31,23.48c-1.65,1.24-3.92,1.24-5.57,0l-33.2-24.9Z"/>
                <path d="m181.79,420.54l47.35-35.51,35.99,26.99-44.57,33.43c-1.65,1.24-3.92,1.24-5.57,0l-33.2-24.9Z"/>
                <path d="m181.79,422.03l47.35-35.51,35.99,26.99-44.57,33.43c-1.65,1.24-3.92,1.24-5.57,0l-33.2-24.9Z"/>
                <path class="cls-37" d="m181.79,420.17l47.35-35.51,35.99,26.99-44.57,33.43c-1.65,1.24-3.92,1.24-5.57,0l-33.2-24.9Z"/>
                <path class="cls-38" d="m181.79,420.17l31.31-23.48c1.65-1.24,3.92-1.24,5.57,0l33.2,24.9-31.31,23.48c-1.65,1.24-3.92,1.24-5.57,0l-33.2-24.9Z"/>
              </g>
            </g>
          </g>
        </g>
        <g>
          <path class="cls-8" d="m435.25,433.9c0,2.74-2.04,5.05-4.76,5.39l-12.61,1.58c-2.52.5-4.37,2.72-4.37,5.33v18.45c0,2.74-2.04,5.05-4.76,5.39l-32.6,4.07c-3.24.41-6.11-2.12-6.11-5.39v-29.12l21.73-3.1v-35.84c0-2.83,2.17-5.18,4.98-5.41l16.75-1.4c0,2.59,1.93,4.77,4.49,5.09l12.48,1.56c2.72.34,4.76,2.65,4.76,5.39v28.02Z"/>
          <path class="cls-6" d="m370.05,469.51v-15.13c0-2.74,2.04-5.05,4.75-5.39l-26.49,3.31v5.16c0,2.74,2.04,5.05,4.76,5.39l12.48,1.56c2.57.32,4.49,2.5,4.49,5.09Z"/>
          <path class="cls-35" d="m353.08,426.33c-2.72.34-4.76,2.65-4.76,5.39v29.7s0-1.54,0-1.54c0-2.74,2.04-5.05,4.76-5.39l33.95-4.24c2.72-.34,4.76-2.65,4.76-5.39v-23.36l-38.71,4.84Z"/>
          <path class="cls-35" d="m348.94,426.48c.8-1.53,2.32-2.64,4.14-2.87l16.97-2.12v-.02l24.45-3.06v26.44c0,4.11-3.06,7.58-7.14,8.09l-33.95,4.24c-1.13.14-3.91.96-4.81,2.02-.19-.55-.29-1.13-.29-1.74v-25.84c0-1.95.09-3.75.62-5.15Z"/>
          <path class="cls-19" d="m353.08,423.62c-2.72.34-4.76,2.65-4.76,5.39v29.7s0-1.54,0-1.54c0-2.74,2.04-5.05,4.76-5.39l33.95-4.24c2.72-.34,4.76-2.65,4.76-5.39v-23.36l-38.71,4.84Z"/>
          <path class="cls-23" d="m353.08,423.62c-2.72.34-4.76,2.65-4.76,5.39v29.7s0-1.54,0-1.54c0-2.74,2.04-5.05,4.76-5.39l33.95-4.24c2.72-.34,4.76-2.65,4.76-5.39v-23.36l-38.71,4.84Z"/>
          <path class="cls-7" d="m391.79,438.97v-15.39c0-2.74,2.04-5.05,4.75-5.39l-26.49,3.31v5.16c0,2.74,2.04,5.05,4.76,5.39l12.21,1.53c2.72.34,4.76,2.65,4.76,5.39Z"/>
          <path class="cls-35" d="m374.81,395.57c-2.72.34-4.76,2.65-4.76,5.39v28.68-.64c0-2.74,2.04-5.05,4.76-5.39l33.95-4.24c2.72-.34,4.76-2.65,4.76-5.39v-17.09c0-3.27-2.86-5.8-6.11-5.39l-32.6,4.07Z"/>
          <path class="cls-35" d="m370.05,429c0-1.37,3.74-2.52,5.1-2.69l33.95-4.24c4.08-.51,7.14-3.98,7.14-8.09v-15.61c-1.63-.87-2.72-2.58-2.72-4.53h0c-.17-2.88-2.58-5.12-5.43-5.11-.22,0-.44.01-.67.04l-32.6,4.07c-1.82.23-3.33,1.34-4.14,2.87-.54,1.42-.62,3.26-.62,5.24v28.04Z"/>
          <path class="cls-32" d="m374.81,392.86c-2.72.34-4.76,2.65-4.76,5.39v28.68-.64c0-2.74,2.04-5.05,4.76-5.39l33.95-4.24c2.72-.34,4.76-2.65,4.76-5.39v-17.09c0-3.27-2.86-5.8-6.11-5.39l-32.6,4.07Z"/>
          <path class="cls-14" d="m374.81,392.86c-2.72.34-4.76,2.65-4.76,5.39v28.68-.64c0-2.74,2.04-5.05,4.76-5.39l33.95-4.24c2.72-.34,4.76-2.65,4.76-5.39v-17.09c0-3.27-2.86-5.8-6.11-5.39l-32.6,4.07Z"/>
        </g>
      </g>
    </g>
  </g>
</svg>